<?xml version="1.0" encoding="UTF-8"?>
<svg xmlns="http://www.w3.org/2000/svg" xmlns:xlink="http://www.w3.org/1999/xlink" viewBox="0 0 50 50" width="50px" height="50px">
<g id="surface9097258">
<path style=" stroke:none;fill-rule:nonzero;fill:rgb(2.352941%,66.666669%,43.137255%);fill-opacity:1;" d="M 39.5 7 C 39.5 7.277344 39.277344 7.5 39 7.5 C 38.722656 7.5 38.5 7.277344 38.5 7 C 38.5 6.722656 38.722656 6.5 39 6.5 C 39.277344 6.5 39.5 6.722656 39.5 7 Z M 39.5 7 "/>
<path style=" stroke:none;fill-rule:nonzero;fill:rgb(80.000001%,80.000001%,80.000001%);fill-opacity:1;" d="M 44 25 C 44 35.492188 35.492188 44 25 44 C 14.507812 44 6 35.492188 6 25 C 6 14.507812 14.507812 6 25 6 C 35.492188 6 44 14.507812 44 25 Z M 44 25 "/>
<path style=" stroke:none;fill-rule:nonzero;fill:rgb(2.352941%,66.666669%,43.137255%);fill-opacity:1;" d="M 44 8 C 44 9.105469 43.105469 10 42 10 C 40.894531 10 40 9.105469 40 8 C 40 6.894531 40.894531 6 42 6 C 43.105469 6 44 6.894531 44 8 Z M 44 8 "/>
<path style=" stroke:none;fill-rule:nonzero;fill:rgb(2.352941%,66.666669%,43.137255%);fill-opacity:1;" d="M 8 13 C 8 13.550781 7.550781 14 7 14 C 6.449219 14 6 13.550781 6 13 C 6 12.449219 6.449219 12 7 12 C 7.550781 12 8 12.449219 8 13 Z M 8 13 "/>
<path style=" stroke:none;fill-rule:nonzero;fill:rgb(2.352941%,66.666669%,43.137255%);fill-opacity:1;" d="M 40 38.5 C 40 39.050781 39.550781 39.5 39 39.5 C 38.449219 39.5 38 39.050781 38 38.5 C 38 37.949219 38.449219 37.5 39 37.5 C 39.550781 37.5 40 37.949219 40 38.5 Z M 40 38.5 "/>
<path style=" stroke:none;fill-rule:nonzero;fill:rgb(2.352941%,66.666669%,43.137255%);fill-opacity:1;" d="M 10.5 39 C 10.5 40.105469 9.605469 41 8.5 41 C 7.394531 41 6.5 40.105469 6.5 39 C 6.5 37.894531 7.394531 37 8.5 37 C 9.605469 37 10.5 37.894531 10.5 39 Z M 10.5 39 "/>
<path style=" stroke:none;fill-rule:nonzero;fill:rgb(2.352941%,66.666669%,43.137255%);fill-opacity:1;" d="M 13 41.5 C 13 42.050781 12.550781 42.5 12 42.5 C 11.449219 42.5 11 42.050781 11 41.5 C 11 40.949219 11.449219 40.5 12 40.5 C 12.550781 40.5 13 40.949219 13 41.5 Z M 13 41.5 "/>
<path style=" stroke:none;fill-rule:nonzero;fill:rgb(100%,100%,100%);fill-opacity:1;" d="M 34.484375 39.257812 C 34.484375 39.945312 33.925781 40.5 33.242188 40.5 C 32.554688 40.5 32 39.945312 32 39.257812 C 32 38.574219 32.554688 38.015625 33.242188 38.015625 C 33.925781 38.015625 34.484375 38.574219 34.484375 39.257812 Z M 34.484375 39.257812 "/>
<path style=" stroke:none;fill-rule:nonzero;fill:rgb(100%,100%,100%);fill-opacity:1;" d="M 8.5 24 C 8.5 24.277344 8.277344 24.5 8 24.5 C 7.722656 24.5 7.5 24.277344 7.5 24 C 7.5 23.722656 7.722656 23.5 8 23.5 C 8.277344 23.5 8.5 23.722656 8.5 24 Z M 8.5 24 "/>
<path style=" stroke:none;fill-rule:nonzero;fill:rgb(2.352941%,66.666669%,43.137255%);fill-opacity:1;" d="M 43.5 15.5 C 43.5 15.777344 43.277344 16 43 16 C 42.722656 16 42.5 15.777344 42.5 15.5 C 42.5 15.222656 42.722656 15 43 15 C 43.277344 15 43.5 15.222656 43.5 15.5 Z M 43.5 15.5 "/>
<path style=" stroke:none;fill-rule:nonzero;fill:rgb(100%,100%,100%);fill-opacity:1;" d="M 41 33 C 41 33.550781 40.550781 34 40 34 C 39.449219 34 39 33.550781 39 33 C 39 32.449219 39.449219 32 40 32 C 40.550781 32 41 32.449219 41 33 Z M 41 33 "/>
<path style=" stroke:none;fill-rule:nonzero;fill:rgb(97.254902%,82.745099%,0%);fill-opacity:1;" d="M 11.867188 27.511719 L 11.808594 27.375 C 11.535156 26.582031 11.589844 25.835938 11.980469 25.101562 L 13.855469 22.382812 L 13.003906 21.851562 C 12.925781 21.804688 12.929688 21.734375 12.933594 21.695312 C 12.941406 21.660156 12.96875 21.59375 13.058594 21.578125 C 13.058594 21.578125 17.828125 20.84375 17.832031 20.84375 C 17.914062 20.84375 17.96875 20.882812 17.988281 20.941406 L 19.855469 25.796875 C 19.875 25.847656 19.871094 25.890625 19.84375 25.933594 C 19.8125 25.976562 19.765625 26.003906 19.71875 26.003906 C 19.691406 26.003906 19.664062 25.996094 19.636719 25.976562 L 18.78125 25.445312 L 15.972656 29.609375 L 13.179688 29.9375 Z M 11.867188 27.511719 "/>
<path style=" stroke:none;fill-rule:nonzero;fill:rgb(27.843139%,16.862746%,16.078432%);fill-opacity:1;" d="M 17.878906 21.191406 L 17.882812 21.191406 L 17.878906 21.191406 M 17.722656 21.214844 L 19.316406 25.367188 L 19.253906 25.324219 L 18.679688 24.96875 L 18.300781 25.527344 L 15.773438 29.28125 L 13.375 29.5625 L 12.191406 27.371094 L 12.136719 27.246094 C 11.90625 26.5625 11.953125 25.925781 12.273438 25.300781 L 13.9375 22.882812 L 14.351562 22.277344 L 13.730469 21.890625 L 13.648438 21.84375 L 17.722656 21.214844 M 17.851562 20.492188 C 17.824219 20.492188 17.800781 20.496094 17.773438 20.5 L 13.007812 21.234375 C 12.546875 21.304688 12.425781 21.90625 12.820312 22.152344 L 13.359375 22.484375 L 11.671875 24.9375 C 11.226562 25.773438 11.179688 26.628906 11.484375 27.503906 C 11.507812 27.558594 11.535156 27.621094 11.5625 27.679688 L 12.984375 30.3125 L 16.171875 29.9375 L 18.882812 25.921875 L 19.453125 26.277344 C 19.539062 26.328125 19.628906 26.351562 19.71875 26.351562 C 20.039062 26.351562 20.320312 26.023438 20.183594 25.671875 L 18.316406 20.8125 C 18.242188 20.617188 18.054688 20.492188 17.851562 20.492188 Z M 17.851562 20.492188 "/>
<path style=" stroke:none;fill-rule:nonzero;fill:rgb(97.254902%,82.745099%,0%);fill-opacity:1;" d="M 17.601562 35.648438 C 16.742188 35.648438 15.960938 35.179688 15.5625 34.421875 L 12.480469 28.605469 C 13.210938 29.046875 14.011719 29.351562 15.144531 29.351562 L 23 29.351562 C 23.082031 29.351562 23.148438 29.417969 23.148438 29.5 L 23.148438 35.5 C 23.148438 35.582031 23.082031 35.648438 23 35.648438 Z M 17.601562 35.648438 "/>
<path style=" stroke:none;fill-rule:nonzero;fill:rgb(27.843139%,16.862746%,16.078432%);fill-opacity:1;" d="M 13.289062 29.386719 C 13.820312 29.582031 14.421875 29.699219 15.144531 29.699219 L 22.800781 29.699219 L 22.800781 35.300781 L 17.601562 35.300781 C 16.871094 35.300781 16.210938 34.902344 15.871094 34.257812 L 13.289062 29.386719 M 11.5 27.5 L 15.25 34.585938 C 15.710938 35.457031 16.617188 36 17.601562 36 L 23 36 C 23.277344 36 23.5 35.777344 23.5 35.5 L 23.5 29.5 C 23.5 29.222656 23.277344 29 23 29 L 15.144531 29 C 13.5 29 12.601562 28.308594 11.5 27.5 Z M 11.5 27.5 "/>
<path style=" stroke:none;fill-rule:nonzero;fill:rgb(97.254902%,82.745099%,0%);fill-opacity:1;" d="M 28.175781 36.757812 C 28.132812 36.757812 28.09375 36.738281 28.0625 36.699219 L 25.050781 32.980469 C 25.007812 32.925781 25.007812 32.84375 25.050781 32.789062 L 28.367188 28.65625 C 28.398438 28.617188 28.433594 28.597656 28.476562 28.597656 C 28.519531 28.597656 28.632812 28.625 28.632812 28.746094 L 28.648438 29.953125 L 33.496094 29.925781 L 35.179688 32.160156 L 33.742188 34.515625 L 33.644531 34.648438 C 33.109375 35.269531 32.4375 35.601562 31.605469 35.632812 L 28.34375 35.636719 L 28.332031 36.609375 C 28.328125 36.730469 28.21875 36.757812 28.175781 36.757812 Z M 28.175781 36.757812 "/>
<path style=" stroke:none;fill-rule:nonzero;fill:rgb(27.843139%,16.862746%,16.078432%);fill-opacity:1;" d="M 28.636719 28.875 L 28.640625 28.875 L 28.636719 28.875 M 28.289062 29.308594 L 28.292969 29.609375 L 28.300781 30.304688 L 28.996094 30.300781 L 33.324219 30.277344 L 34.757812 32.179688 L 33.460938 34.308594 L 33.417969 34.367188 L 33.382812 34.417969 C 32.898438 34.96875 32.316406 35.25 31.605469 35.28125 L 28.6875 35.285156 L 27.996094 35.285156 L 27.988281 35.976562 L 27.988281 36.050781 L 25.425781 32.886719 L 28.289062 29.308594 M 28.476562 28.246094 C 28.339844 28.246094 28.195312 28.304688 28.09375 28.4375 L 24.777344 32.570312 C 24.628906 32.753906 24.632812 33.015625 24.777344 33.199219 L 27.792969 36.917969 C 27.894531 37.046875 28.035156 37.105469 28.175781 37.105469 C 28.429688 37.105469 28.675781 36.914062 28.679688 36.609375 L 28.6875 35.984375 L 31.621094 35.980469 C 32.5625 35.945312 33.328125 35.554688 33.929688 34.851562 C 33.96875 34.800781 34.003906 34.746094 34.042969 34.695312 L 35.601562 32.140625 L 33.671875 29.574219 L 28.992188 29.601562 L 28.984375 28.742188 C 28.976562 28.441406 28.730469 28.246094 28.476562 28.246094 Z M 28.476562 28.246094 "/>
<path style=" stroke:none;fill-rule:nonzero;fill:rgb(97.254902%,82.745099%,0%);fill-opacity:1;" d="M 34.589844 33.183594 C 34.601562 32.332031 34.460938 31.488281 33.890625 30.507812 L 29.929688 23.722656 C 29.902344 23.675781 29.910156 23.632812 29.914062 23.609375 C 29.921875 23.585938 29.9375 23.546875 29.984375 23.515625 L 35.167969 20.496094 C 35.191406 20.480469 35.21875 20.472656 35.242188 20.472656 C 35.296875 20.472656 35.347656 20.503906 35.375 20.546875 L 38.09375 25.210938 C 38.527344 25.953125 38.511719 26.863281 38.0625 27.59375 Z M 34.589844 33.183594 "/>
<path style=" stroke:none;fill-rule:nonzero;fill:rgb(27.843139%,16.862746%,16.078432%);fill-opacity:1;" d="M 35.34375 20.796875 L 35.347656 20.796875 L 35.34375 20.796875 M 35.171875 20.898438 L 37.792969 25.390625 C 38.15625 26.019531 38.148438 26.792969 37.761719 27.410156 L 34.855469 32.09375 C 34.753906 31.535156 34.554688 30.957031 34.191406 30.332031 L 30.335938 23.71875 L 35.171875 20.898438 M 35.242188 20.125 C 35.15625 20.125 35.070312 20.148438 34.992188 20.191406 L 29.808594 23.214844 C 29.570312 23.355469 29.488281 23.660156 29.628906 23.898438 L 33.585938 30.683594 C 34.414062 32.105469 34.273438 33.226562 34.128906 34.589844 L 38.359375 27.777344 C 38.878906 26.941406 38.890625 25.886719 38.398438 25.039062 L 35.675781 20.371094 C 35.582031 20.214844 35.414062 20.125 35.242188 20.125 Z M 35.242188 20.125 "/>
<path style=" stroke:none;fill-rule:nonzero;fill:rgb(97.254902%,82.745099%,0%);fill-opacity:1;" d="M 26.433594 19.519531 C 26.339844 19.507812 26.3125 19.441406 26.304688 19.402344 C 26.296875 19.363281 26.296875 19.289062 26.378906 19.242188 L 27.253906 18.730469 L 24.949219 14.566406 L 25.964844 11.945312 L 28.722656 11.925781 L 28.886719 11.9375 C 29.699219 12.066406 30.335938 12.464844 30.800781 13.15625 L 32.273438 15.8125 L 33.128906 15.316406 C 33.15625 15.300781 33.179688 15.292969 33.207031 15.292969 C 33.253906 15.292969 33.300781 15.320312 33.332031 15.359375 C 33.359375 15.402344 33.363281 15.445312 33.347656 15.496094 L 31.761719 20.046875 C 31.738281 20.109375 31.683594 20.148438 31.621094 20.148438 Z M 26.433594 19.519531 "/>
<path style=" stroke:none;fill-rule:nonzero;fill:rgb(27.843139%,16.862746%,16.078432%);fill-opacity:1;" d="M 28.699219 12.277344 L 28.808594 12.285156 L 28.832031 12.285156 C 29.546875 12.40625 30.09375 12.746094 30.492188 13.328125 L 31.792969 15.671875 L 32.140625 16.296875 L 32.757812 15.9375 L 32.839844 15.890625 L 31.484375 19.78125 L 27.066406 19.246094 L 27.132812 19.207031 L 27.726562 18.863281 L 27.394531 18.261719 L 25.335938 14.539062 L 26.207031 12.296875 L 28.699219 12.277344 M 33.304688 15.617188 L 33.308594 15.617188 L 33.304688 15.617188 M 28.71875 11.578125 L 25.726562 11.597656 L 24.5625 14.589844 L 26.78125 18.601562 L 26.203125 18.9375 C 25.785156 19.179688 25.917969 19.808594 26.390625 19.867188 L 31.558594 20.496094 C 31.578125 20.496094 31.601562 20.496094 31.621094 20.496094 C 31.832031 20.496094 32.019531 20.367188 32.09375 20.164062 L 33.679688 15.609375 C 33.800781 15.261719 33.527344 14.941406 33.207031 14.941406 C 33.125 14.941406 33.039062 14.964844 32.953125 15.011719 L 32.40625 15.332031 L 31.089844 12.957031 C 30.558594 12.175781 29.824219 11.730469 28.910156 11.589844 C 28.847656 11.585938 28.785156 11.582031 28.71875 11.578125 Z M 28.71875 11.578125 "/>
<path style=" stroke:none;fill-rule:nonzero;fill:rgb(97.254902%,82.745099%,0%);fill-opacity:1;" d="M 21.75 20.976562 C 21.722656 20.976562 21.699219 20.972656 21.679688 20.960938 L 16.378906 18.148438 C 16.332031 18.121094 16.3125 18.082031 16.304688 18.058594 C 16.296875 18.035156 16.289062 17.992188 16.316406 17.945312 L 18.847656 13.175781 C 19.25 12.417969 20.03125 11.949219 20.886719 11.949219 L 27.46875 11.953125 C 26.738281 12.390625 26.09375 12.957031 25.5625 13.960938 L 21.882812 20.898438 C 21.851562 20.957031 21.792969 20.976562 21.75 20.976562 Z M 21.75 20.976562 "/>
<path style=" stroke:none;fill-rule:nonzero;fill:rgb(27.843139%,16.862746%,16.078432%);fill-opacity:1;" d="M 20.886719 12.296875 L 26.402344 12.304688 C 25.980469 12.679688 25.59375 13.15625 25.253906 13.796875 L 21.664062 20.554688 L 16.71875 17.929688 L 19.15625 13.335938 C 19.496094 12.695312 20.160156 12.296875 20.886719 12.296875 M 20.886719 11.597656 C 19.902344 11.597656 19 12.140625 18.539062 13.011719 L 16.007812 17.78125 C 15.878906 18.023438 15.972656 18.328125 16.214844 18.457031 L 21.515625 21.269531 C 21.589844 21.308594 21.671875 21.328125 21.75 21.328125 C 21.929688 21.328125 22.101562 21.230469 22.191406 21.0625 L 25.871094 14.125 C 26.644531 12.671875 27.671875 12.203125 28.90625 11.605469 Z M 20.886719 11.597656 "/>
<path style=" stroke:none;fill-rule:nonzero;fill:rgb(27.843139%,16.862746%,16.078432%);fill-opacity:1;" d="M 36 30.832031 C 36 30.832031 36 30.832031 35.996094 30.832031 C 35.929688 30.832031 35.875 30.773438 35.875 30.707031 C 35.886719 29.886719 35.429688 29.058594 35.097656 28.449219 L 34.03125 26.523438 C 34 26.460938 34.023438 26.386719 34.082031 26.351562 C 34.144531 26.316406 34.21875 26.339844 34.25 26.402344 L 35.316406 28.328125 C 35.664062 28.960938 36.140625 29.824219 36.125 30.710938 C 36.125 30.777344 36.070312 30.832031 36 30.832031 Z M 36 30.832031 "/>
<path style=" stroke:none;fill-rule:nonzero;fill:rgb(27.843139%,16.862746%,16.078432%);fill-opacity:1;" d="M 33.703125 25.796875 C 33.660156 25.796875 33.617188 25.773438 33.59375 25.730469 L 32.3125 23.402344 C 32.277344 23.34375 32.300781 23.269531 32.363281 23.234375 C 32.421875 23.199219 32.496094 23.222656 32.53125 23.285156 L 33.8125 25.613281 C 33.84375 25.671875 33.824219 25.746094 33.761719 25.78125 C 33.742188 25.792969 33.722656 25.796875 33.703125 25.796875 Z M 33.703125 25.796875 "/>
<path style=" stroke:none;fill-rule:nonzero;fill:rgb(27.843139%,16.862746%,16.078432%);fill-opacity:1;" d="M 16.113281 31.890625 C 15.425781 31.890625 14.5625 31.855469 13.871094 31.464844 C 13.8125 31.429688 13.789062 31.355469 13.824219 31.292969 C 13.859375 31.234375 13.933594 31.214844 13.996094 31.246094 C 14.707031 31.648438 15.65625 31.640625 16.351562 31.636719 L 18.25 31.625 C 18.316406 31.625 18.375 31.679688 18.375 31.75 C 18.375 31.816406 18.320312 31.875 18.25 31.875 L 16.351562 31.886719 C 16.277344 31.890625 16.195312 31.890625 16.113281 31.890625 Z M 16.113281 31.890625 "/>
<path style=" stroke:none;fill-rule:nonzero;fill:rgb(27.843139%,16.862746%,16.078432%);fill-opacity:1;" d="M 19.25 31.890625 C 19.179688 31.890625 19.125 31.835938 19.125 31.765625 C 19.125 31.695312 19.179688 31.640625 19.25 31.640625 L 21.75 31.625 C 21.820312 31.625 21.875 31.679688 21.875 31.75 C 21.875 31.820312 21.820312 31.875 21.75 31.875 Z M 19.25 31.890625 "/>
<path style=" stroke:none;fill-rule:nonzero;fill:rgb(27.843139%,16.862746%,16.078432%);fill-opacity:1;" d="M 21.777344 15.667969 C 21.757812 15.667969 21.738281 15.664062 21.722656 15.65625 C 21.660156 15.625 21.636719 15.550781 21.667969 15.488281 L 22.527344 13.792969 C 22.851562 13.152344 23.300781 12.273438 24.042969 11.785156 C 24.097656 11.75 24.175781 11.765625 24.214844 11.824219 C 24.253906 11.878906 24.234375 11.957031 24.179688 11.996094 C 23.492188 12.445312 23.0625 13.289062 22.75 13.90625 L 21.890625 15.601562 C 21.867188 15.644531 21.824219 15.667969 21.777344 15.667969 Z M 21.777344 15.667969 "/>
<path style=" stroke:none;fill-rule:nonzero;fill:rgb(27.843139%,16.862746%,16.078432%);fill-opacity:1;" d="M 20.171875 18.777344 C 20.152344 18.777344 20.132812 18.773438 20.113281 18.765625 C 20.054688 18.734375 20.027344 18.660156 20.058594 18.597656 L 21.195312 16.371094 C 21.226562 16.308594 21.300781 16.285156 21.363281 16.316406 C 21.425781 16.347656 21.449219 16.421875 21.417969 16.484375 L 20.28125 18.710938 C 20.261719 18.753906 20.214844 18.777344 20.171875 18.777344 Z M 20.171875 18.777344 "/>
</g>
</svg>
